# xmcd CD database file
#
# Track frame offsets:
#	150
#	13385
#	31305
#	48413
#	67838
#	83691
#	97420
#	110608
#	129441
#	144106
#
# Disc length: 2367 seconds
#
# Revision: 0
# Processed by: cddbd v1.5.2PL0 Copyright (c) Steve Scherf et al.
# Submitted via: cdripper 1.0.6
#
DISCID=82093d0a
DTITLE=Country Hearts - The Risk
DYEAR=1998
DGENRE=Country
TTITLE0=All I Ever Wanted
TTITLE1=Kind Of Woman
TTITLE2=Who, What, Where, Why, When
TTITLE3=The Risk
TTITLE4=Don't Wanna Be Alone(The Sunday Song)
TTITLE5=Baby Said The L-Word
TTITLE6=I Never Liked You
TTITLE7=Million Other Girls
TTITLE8=Love Is Blind
TTITLE9=Just Getting Used To Love
EXTD=YEAR: 1998
EXTT0=
EXTT1=
EXTT2=
EXTT3=
EXTT4=
EXTT5=
EXTT6=
EXTT7=
EXTT8=
EXTT9=
PLAYORDER=
